<?xml version="1.0" encoding="iso-8859-1"?>
<!-- Generator: Adobe Illustrator 19.0.0, SVG Export Plug-In . SVG Version: 6.00 Build 0)  -->
<svg version="1.1" id="Capa_1" xmlns="http://www.w3.org/2000/svg" xmlns:xlink="http://www.w3.org/1999/xlink" x="0px" y="0px"
	 viewBox="0 0 512 512" style="enable-background:new 0 0 512 512;" xml:space="preserve">
<g>
	<g>
		<path d="M511.946,108.292c-4.473-23.156-25.66-44.453-59.473-61.592c-3.1-1.571-6.793-1.421-9.755,0.398
			c-2.961,1.819-4.766,5.044-4.766,8.52v78.132c0,5.522,4.478,9.999,9.999,9.999s9.999-4.477,9.999-9.999V72.769
			c18.697,11.909,30.295,25.24,33.225,38.442l0.001,13.724c-4.371,19.786-27.521,39.378-65.041,54.63
			c-45.289,18.41-105.722,28.549-170.163,28.549s-124.874-10.139-170.165-28.55c-41.824-17.001-65.81-39.396-65.81-61.44v-6.913
			c2.933-13.202,14.529-26.533,33.226-38.441v60.981c0,5.522,4.478,9.999,9.999,9.999s9.999-4.477,9.999-9.999V55.617
			c0-3.476-1.805-6.701-4.766-8.52c-2.961-1.82-6.653-1.969-9.754-0.398C24.891,63.839,4.654,85.136,0.182,108.292
			C0.061,108.917,0,356.393,0,356.393c0,31.048,27.8,59.447,78.278,79.967c47.626,19.36,110.732,30.022,177.695,30.022
			s130.069-10.662,177.695-30.022c50.478-20.52,78.278-48.919,78.278-79.967C511.946,356.393,512.067,108.917,511.946,108.292z
			 M426.138,417.833c-45.291,18.411-105.724,28.55-170.165,28.55s-124.874-10.139-170.165-28.55
			c-21.458-8.722-38.205-18.866-49.442-29.652l99.659-99.659l101.769,101.77c3.905,3.906,10.236,3.906,14.142,0
			c3.905-3.905,3.905-10.236,0-14.141l-26.814-26.814l94.593-94.592L463.219,398.25
			C453.214,405.274,440.773,411.884,426.138,417.833z M491.948,356.393c0,9.714-4.664,19.495-13.452,28.853L326.784,233.534
			c-3.906-3.905-10.235-3.905-14.141,0L210.98,335.196l-67.885-67.885c-1.876-1.875-4.419-2.929-7.07-2.929s-5.194,1.054-7.07,2.929
			L24.054,372.21c-2.666-5.239-4.057-10.538-4.057-15.817V161.837c13.263,13.633,32.905,25.937,58.28,36.252
			c47.626,19.36,110.732,30.022,177.695,30.022s130.069-10.662,177.695-30.022c25.375-10.315,45.017-22.62,58.28-36.252V356.393z"/>
	</g>
</g>
<g>
	<g>
		<path d="M283.569,407.787c-1.859-1.86-4.439-2.93-7.069-2.93c-2.63,0-5.209,1.07-7.068,2.93c-1.86,1.86-2.931,4.44-2.931,7.069
			c0,2.63,1.07,5.209,2.931,7.069c1.859,1.86,4.439,2.93,7.068,2.93c2.631,0,5.21-1.07,7.069-2.93c1.86-1.86,2.93-4.44,2.93-7.069
			C286.499,412.227,285.43,409.647,283.569,407.787z"/>
	</g>
</g>
<g>
</g>
<g>
</g>
<g>
</g>
<g>
</g>
<g>
</g>
<g>
</g>
<g>
</g>
<g>
</g>
<g>
</g>
<g>
</g>
<g>
</g>
<g>
</g>
<g>
</g>
<g>
</g>
<g>
</g>
</svg>
