<?xml version="1.0" encoding="iso-8859-1"?>
<!-- Generator: Adobe Illustrator 19.0.0, SVG Export Plug-In . SVG Version: 6.00 Build 0)  -->
<svg version="1.1" id="Capa_1" xmlns="http://www.w3.org/2000/svg" xmlns:xlink="http://www.w3.org/1999/xlink" x="0px" y="0px"
	 viewBox="0 0 512 512" style="enable-background:new 0 0 512 512;" xml:space="preserve">
<g>
	<g>
		<path d="M504.5,53.5H7.5C3.358,53.5,0,56.857,0,61v322c0,4.143,3.358,7.5,7.5,7.5s7.5-3.357,7.5-7.5V118.5h482v9.375
			c0,4.143,3.357,7.5,7.5,7.5s7.5-3.357,7.5-7.5V61C512,56.857,508.643,53.5,504.5,53.5z M112,103.5H15v-35h97V103.5z M497,103.5
			H127v-35h370V103.5z"/>
	</g>
</g>
<g>
	<g>
		<path d="M504.5,152.375c-4.143,0-7.5,3.357-7.5,7.5V443.5H15v-27c0-4.143-3.358-7.5-7.5-7.5S0,412.357,0,416.5V451
			c0,4.143,3.358,7.5,7.5,7.5h497c4.143,0,7.5-3.357,7.5-7.5V159.875C512,155.732,508.643,152.375,504.5,152.375z"/>
	</g>
</g>
<g>
	<g>
		<circle cx="36.5" cy="86" r="7.5"/>
	</g>
</g>
<g>
	<g>
		<circle cx="92.5" cy="86" r="7.5"/>
	</g>
</g>
<g>
	<g>
		<circle cx="64.5" cy="86" r="7.5"/>
	</g>
</g>
<g>
	<g>
		<path d="M351,219.5h-55.5V197c0-4.143-3.357-7.5-7.5-7.5h-64c-4.142,0-7.5,3.357-7.5,7.5v22.5H161
			c-20.678,0-37.5,16.822-37.5,37.5v96c0,20.678,16.822,37.5,37.5,37.5h126.75c4.143,0,7.5-3.357,7.5-7.5s-3.357-7.5-7.5-7.5H161
			c-12.407,0-22.5-10.094-22.5-22.5v-96c0-12.406,10.093-22.5,22.5-22.5h190c12.406,0,22.5,10.094,22.5,22.5v96
			c0,12.406-10.094,22.5-22.5,22.5h-30.75c-4.143,0-7.5,3.357-7.5,7.5s3.357,7.5,7.5,7.5H351c20.678,0,37.5-16.822,37.5-37.5v-96
			C388.5,236.322,371.678,219.5,351,219.5z M280.5,219.5h-49v-15h49V219.5z"/>
	</g>
</g>
<g>
	<g>
		<path d="M256,252.5c-28.949,0-52.5,23.552-52.5,52.5s23.551,52.5,52.5,52.5c28.948,0,52.5-23.552,52.5-52.5
			S284.948,252.5,256,252.5z M256,342.5c-20.678,0-37.5-16.822-37.5-37.5c0-20.678,16.822-37.5,37.5-37.5s37.5,16.822,37.5,37.5
			C293.5,325.678,276.678,342.5,256,342.5z"/>
	</g>
</g>
<g>
	<g>
		<path d="M256,282.5c-12.407,0-22.5,10.094-22.5,22.5s10.093,22.5,22.5,22.5c12.406,0,22.5-10.094,22.5-22.5
			S268.406,282.5,256,282.5z M256,312.5c-4.136,0-7.5-3.364-7.5-7.5s3.364-7.5,7.5-7.5s7.5,3.364,7.5,7.5S260.136,312.5,256,312.5z"
			/>
	</g>
</g>
<g>
	<g>
		<path d="M256,132.879c-4.142,0-7.5,3.357-7.5,7.5v14.349c0,4.143,3.358,7.5,7.5,7.5c4.143,0,7.5-3.358,7.5-7.5v-14.349
			C263.5,136.236,260.143,132.879,256,132.879z"/>
	</g>
</g>
<g>
	<g>
		<path d="M226.928,160.556l-7.151-12.427c-2.066-3.592-6.653-4.826-10.241-2.761c-3.59,2.066-4.826,6.651-2.76,10.241l7.151,12.427
			c1.387,2.412,3.911,3.761,6.507,3.761c1.269,0,2.555-0.322,3.734-1C227.758,168.731,228.994,164.146,226.928,160.556z"/>
	</g>
</g>
<g>
	<g>
		<path d="M198.145,183.89l-12.385-7.175c-3.583-2.077-8.173-0.854-10.249,2.729s-0.854,8.173,2.73,10.249l12.385,7.175
			c1.184,0.687,2.476,1.012,3.752,1.012c2.588,0,5.106-1.341,6.497-3.741C202.951,190.555,201.729,185.966,198.145,183.89z"/>
	</g>
</g>
<g>
	<g>
		<path d="M336.489,179.262c-2.076-3.584-6.666-4.805-10.249-2.729l-12.385,7.175c-3.584,2.076-4.807,6.665-2.729,10.249
			c1.391,2.4,3.908,3.741,6.496,3.741c1.276,0,2.569-0.326,3.753-1.012l12.385-7.175
			C337.344,187.435,338.567,182.846,336.489,179.262z"/>
	</g>
</g>
<g>
	<g>
		<path d="M302.463,145.053c-3.589-2.063-8.175-0.829-10.241,2.761l-7.15,12.427c-2.065,3.59-0.83,8.175,2.761,10.241
			c1.179,0.678,2.464,1,3.733,1c2.596,0,5.12-1.35,6.508-3.761l7.15-12.427C307.289,151.704,306.054,147.119,302.463,145.053z"/>
	</g>
</g>
<g>
</g>
<g>
</g>
<g>
</g>
<g>
</g>
<g>
</g>
<g>
</g>
<g>
</g>
<g>
</g>
<g>
</g>
<g>
</g>
<g>
</g>
<g>
</g>
<g>
</g>
<g>
</g>
<g>
</g>
</svg>
